<svg xmlns="http://www.w3.org/2000/svg" version="1.1" xmlns:xlink="http://www.w3.org/1999/xlink" xmlns:svgjs="http://svgjs.com/svgjs" width="1440" height="560" preserveAspectRatio="none" viewBox="0 0 1440 560"><g mask="url(&quot;#SvgjsMask1315&quot;)" fill="none"><rect width="1440" height="560" x="0" y="0" fill="url(#SvgjsLinearGradient1316)"></rect><path d="M932.136,475.765C975.676,477.646,1016.709,451.079,1036.184,412.091C1053.994,376.437,1038.883,336.409,1019,301.868C999.057,267.222,972.021,234.025,932.136,231.332C887.974,228.35,842.672,249.306,822.266,288.585C803.009,325.652,821.428,367.704,842.573,403.728C863.36,439.142,891.11,473.993,932.136,475.765" fill="rgba(43, 119, 255, 0.4)" class="triangle-float1"></path><path d="M964.82,729.359C1010.777,731.337,1057.869,718.223,1083.848,680.261C1113.381,637.105,1123.534,580.283,1098.11,534.585C1072.098,487.831,1018.266,463.847,964.82,466.317C915.32,468.604,873.5,501.696,851.286,545.991C831.231,585.981,838.755,632.691,862.306,670.727C884.517,706.6,922.667,727.545,964.82,729.359" fill="rgba(43, 119, 255, 0.4)" class="triangle-float1"></path><path d="M970.325,324.258C1014.11,322.126,1046.902,290.001,1070.057,252.778C1095.041,212.615,1118.63,164.185,1095.6,122.87C1072.2,80.892,1018.377,74.655,970.325,73.863C920.319,73.038,864.134,76.17,837.683,118.616C810.191,162.732,824.045,219.703,852.221,263.385C877.951,303.276,922.912,326.567,970.325,324.258" fill="rgba(43, 119, 255, 0.4)" class="triangle-float3"></path><path d="M1263.329,263.391C1301.467,263.593,1332.7,235.978,1351.037,202.536C1368.609,170.489,1371.613,131.575,1352.782,100.252C1334.463,69.782,1298.882,56.635,1263.329,56.647C1227.8,56.659,1192.125,69.766,1173.98,100.312C1155.487,131.444,1159.818,169.858,1177.217,201.614C1195.41,234.82,1225.467,263.19,1263.329,263.391" fill="rgba(43, 119, 255, 0.4)" class="triangle-float1"></path><path d="M259.256,297.974C291.26,297.431,323.89,287.999,340.778,260.808C358.526,232.232,358.086,195.52,340.821,166.65C323.985,138.497,292.053,125.097,259.256,124.49C225.205,123.86,190.262,134.602,172.29,163.531C153.413,193.917,153.371,233.621,172.8,263.657C190.849,291.56,226.029,298.538,259.256,297.974" fill="rgba(43, 119, 255, 0.4)" class="triangle-float2"></path><path d="M120.271,555.656C159.226,555.22,200.822,546.969,220.86,513.56C241.345,479.405,231.105,437.465,212.179,402.422C192.027,365.109,162.637,329.173,120.271,327.308C75.31,325.329,35.023,354.307,13.196,393.665C-7.98,431.849,-8.368,479.429,15.709,515.854C37.75,549.199,80.302,556.103,120.271,555.656" fill="rgba(43, 119, 255, 0.4)" class="triangle-float2"></path><path d="M995.684,565.93C1039.203,566.446,1083.137,547.761,1103.557,509.327C1123.018,472.698,1109.166,429.372,1086.794,394.444C1066.432,362.653,1033.395,342.695,995.684,340.911C954.253,338.95,910.264,349.864,888.306,385.052C865.264,421.978,869.94,469.391,892.158,506.818C913.9,543.442,953.096,565.425,995.684,565.93" fill="rgba(43, 119, 255, 0.4)" class="triangle-float3"></path><path d="M69.329,490.492C85.577,490.511,95.651,474.998,103.999,461.058C112.691,446.544,123.23,429.454,114.593,414.908C106.04,400.504,86.063,401.887,69.329,402.666C54.427,403.359,38.419,405.971,30.818,418.807C23.107,431.828,27.637,447.646,34.799,460.977C42.479,475.274,53.1,490.473,69.329,490.492" fill="rgba(43, 119, 255, 0.4)" class="triangle-float3"></path><path d="M1258.393,288.249C1303.557,289.827,1348.779,269.129,1370.384,229.436C1391.229,191.139,1378.708,145.657,1356.396,108.195C1334.714,71.792,1300.588,45.267,1258.393,41.404C1207.732,36.766,1147.94,42.278,1123.451,86.869C1099.403,130.657,1131.37,180.558,1159.179,222.059C1182.898,257.457,1215.809,286.762,1258.393,288.249" fill="rgba(43, 119, 255, 0.4)" class="triangle-float2"></path><path d="M134.153,573.452C158.508,574.902,184.244,565.502,195.763,543.995C206.836,523.322,195.91,499.844,184.573,479.314C172.682,457.779,158.734,433.396,134.153,432.421C108.504,431.404,87.356,451.856,76.297,475.021C66.63,495.27,72.693,518,84.063,537.344C95.241,556.362,112.132,572.141,134.153,573.452" fill="rgba(43, 119, 255, 0.4)" class="triangle-float2"></path><path d="M707.14,62.962C724.407,62.823,739.757,52.709,748.372,37.743C756.967,22.812,758.503,4.165,749.408,-10.466C740.734,-24.42,723.559,-29.192,707.14,-28.587C691.881,-28.024,678.111,-20.439,669.946,-7.536C661.111,6.426,657.028,23.804,664.738,38.418C672.905,53.899,689.638,63.103,707.14,62.962" fill="rgba(43, 119, 255, 0.4)" class="triangle-float1"></path><path d="M804.229,612.526C838.964,614.353,878.396,611.575,896.672,581.981C915.553,551.408,904.624,512.059,884.768,482.11C867.053,455.391,836.284,442.989,804.229,442.548C771.244,442.094,736.522,451.429,719.759,479.84C702.78,508.618,709.276,544.883,727.22,573.07C743.821,599.147,773.359,610.903,804.229,612.526" fill="rgba(43, 119, 255, 0.4)" class="triangle-float1"></path><path d="M1129.728,93.975C1157.131,94.534,1185.207,85.987,1199.827,62.803C1215.357,38.176,1214.486,6.997,1200.773,-18.686C1186.174,-46.03,1160.71,-67.531,1129.728,-68.489C1097.208,-69.495,1065.384,-52.334,1050.644,-23.328C1036.967,3.585,1047.536,35.009,1064.412,60.041C1079.112,81.845,1103.437,93.439,1129.728,93.975" fill="rgba(43, 119, 255, 0.4)" class="triangle-float1"></path><path d="M581.565,268.543C624.024,268.758,666.834,254.957,689.663,219.156C714.182,180.706,716.532,131.472,694.397,91.602C671.627,50.588,628.465,23.407,581.565,24.446C536.246,25.45,498.871,56.673,477.069,96.415C456.162,134.525,452.786,180.915,475.343,218.072C497.146,253.987,539.551,268.331,581.565,268.543" fill="rgba(43, 119, 255, 0.4)" class="triangle-float2"></path><path d="M419.738,432.755C446.361,434.865,475.352,426.903,488.622,403.727C501.834,380.653,492.798,352.453,478.584,329.982C465.493,309.287,444.226,294.881,419.738,294.834C395.17,294.787,371.94,308.014,360.498,329.755C349.724,350.226,355.948,374.075,367.481,394.128C379.056,414.253,396.595,430.921,419.738,432.755" fill="rgba(43, 119, 255, 0.4)" class="triangle-float1"></path><path d="M291.691,59.507C310.989,59.494,326.275,45.5,336.255,28.983C346.672,11.742,354.02,-9.472,343.889,-26.883C333.798,-44.225,311.75,-48.066,291.691,-47.603C272.615,-47.163,253.115,-41.05,243.507,-24.565C233.842,-7.982,237.475,12.392,247.019,29.045C256.624,45.805,272.374,59.52,291.691,59.507" fill="rgba(43, 119, 255, 0.4)" class="triangle-float1"></path><path d="M1333.379,221.079C1374.197,220.531,1409.06,194.398,1429.254,158.921C1449.214,123.855,1452.732,81.247,1433.01,46.046C1412.857,10.076,1374.587,-13.565,1333.379,-12.2C1294.187,-10.901,1264.187,18.34,1244.562,52.29C1224.914,86.279,1214.654,126.816,1232.935,161.559C1252.359,198.473,1291.671,221.639,1333.379,221.079" fill="rgba(43, 119, 255, 0.4)" class="triangle-float3"></path><path d="M765.683,375.506C825.324,380.159,889.828,365.258,921.66,314.608C955.149,261.322,948.01,191.912,914.578,138.59C883.127,88.427,824.89,65.846,765.683,65.831C706.447,65.816,644.102,86.02,616.66,138.516C590.58,188.405,616.875,245.513,646.841,293.168C674.337,336.895,714.186,371.488,765.683,375.506" fill="rgba(43, 119, 255, 0.4)" class="triangle-float3"></path><path d="M1023.492,155.748C1041.665,155.885,1057.302,144.852,1067.09,129.539C1077.839,112.723,1084.729,92.035,1075.54,74.318C1065.752,55.447,1044.712,44.218,1023.492,45.484C1004.034,46.645,990.036,62.575,981.19,79.945C973.255,95.527,972.498,113.621,981.019,128.89C989.768,144.568,1005.539,155.612,1023.492,155.748" fill="rgba(43, 119, 255, 0.4)" class="triangle-float1"></path><path d="M632.393,464.099C683.375,464.207,732.539,441.61,758.825,397.927C785.921,352.898,788.819,295.252,760.721,250.841C734.218,208.952,681.955,197.248,632.393,198.096C584.633,198.914,536.909,214.688,511.455,255.108C484.352,298.145,481.41,353.373,506.884,397.394C532.317,441.345,581.614,463.992,632.393,464.099" fill="rgba(43, 119, 255, 0.4)" class="triangle-float3"></path></g><defs><mask id="SvgjsMask1315"><rect width="1440" height="560" fill="#ffffff"></rect></mask><linearGradient x1="15.28%" y1="139.29%" x2="84.72%" y2="-39.29%" gradientUnits="userSpaceOnUse" id="SvgjsLinearGradient1316"><stop stop-color="rgba(94, 0, 250, 1)" offset="0"></stop><stop stop-color="rgba(8, 57, 147, 1)" offset="1"></stop></linearGradient><style>
            @keyframes float1 {
                0%{transform: translate(0, 0)}
                50%{transform: translate(-10px, 0)}
                100%{transform: translate(0, 0)}
            }

            .triangle-float1 {
                animation: float1 5s infinite;
            }

            @keyframes float2 {
                0%{transform: translate(0, 0)}
                50%{transform: translate(-5px, -5px)}
                100%{transform: translate(0, 0)}
            }

            .triangle-float2 {
                animation: float2 4s infinite;
            }

            @keyframes float3 {
                0%{transform: translate(0, 0)}
                50%{transform: translate(0, -10px)}
                100%{transform: translate(0, 0)}
            }

            .triangle-float3 {
                animation: float3 6s infinite;
            }
        </style></defs></svg>