<svg xmlns="http://www.w3.org/2000/svg"  viewBox="0 0 100 100" width="100px" height="100px"><path fill="#e02343" d="M73.923,82H26.077C21.616,82,18,78.384,18,73.923V26.077C18,21.616,21.616,18,26.077,18h47.846 C78.384,18,82,21.616,82,26.077v47.846C82,78.384,78.384,82,73.923,82z"/><path fill="#1f212b" d="M74.874,19.1c3.322,0,6.025,2.703,6.025,6.026v49.75c0,3.322-2.703,6.025-6.025,6.025H25.125 c-3.323,0-6.026-2.703-6.026-6.025v-49.75c0-3.323,2.703-6.026,6.026-6.026H74.874 M74.874,17H25.125 C20.637,17,17,20.637,17,25.125v49.75C17,79.362,20.637,83,25.125,83h49.75C79.362,83,83,79.362,83,74.874V25.125 C83,20.637,79.362,17,74.874,17L74.874,17z"/><path fill="#1f212b" d="M22.5,30c-0.276,0-0.5-0.224-0.5-0.5v-2.962C22,24.036,24.036,22,26.538,22H31.5 c0.276,0,0.5,0.224,0.5,0.5S31.776,23,31.5,23h-4.962C24.587,23,23,24.587,23,26.538V29.5C23,29.776,22.776,30,22.5,30z"/><path fill="#1f212b" d="M29.5,78h-2.962C24.036,78,22,75.964,22,73.462V49.5c0-0.276,0.224-0.5,0.5-0.5s0.5,0.224,0.5,0.5 v23.962C23,75.413,24.587,77,26.538,77H29.5c0.276,0,0.5,0.224,0.5,0.5S29.776,78,29.5,78z"/><path fill="#1f212b" d="M73.462,78H61c-0.276,0-0.5-0.224-0.5-0.5S60.724,77,61,77h12.462C75.413,77,77,75.413,77,73.462 V47.5c0-0.276,0.224-0.5,0.5-0.5s0.5,0.224,0.5,0.5v25.962C78,75.964,75.964,78,73.462,78z"/><path fill="#1f212b" d="M77.5,48.5c-0.276,0-0.5-0.224-0.5-0.5V26.538C77,24.587,75.413,23,73.462,23H69 c-0.276,0-0.5-0.224-0.5-0.5S68.724,22,69,22h4.462C75.964,22,78,24.036,78,26.538V48C78,48.276,77.776,48.5,77.5,48.5z"/><path fill="#1f212b" d="M52.5,23h-3c-0.276,0-0.5-0.224-0.5-0.5s0.224-0.5,0.5-0.5h3c0.276,0,0.5,0.224,0.5,0.5 S52.776,23,52.5,23z"/><path fill="#1f212b" d="M46.5,23h-10c-0.276,0-0.5-0.224-0.5-0.5s0.224-0.5,0.5-0.5h10c0.276,0,0.5,0.224,0.5,0.5 S46.776,23,46.5,23z"/><path fill="#1f212b" d="M38.5,78h-5c-0.276,0-0.5-0.224-0.5-0.5s0.224-0.5,0.5-0.5h5c0.276,0,0.5,0.224,0.5,0.5 S38.776,78,38.5,78z"/><path fill="#1f212b" d="M57.5,78h-14c-0.276,0-0.5-0.224-0.5-0.5s0.224-0.5,0.5-0.5h14c0.276,0,0.5,0.224,0.5,0.5 S57.776,78,57.5,78z"/><path fill="#fff" d="M36.783,70.522c-0.959,0-1.739-0.781-1.739-1.739V31.217c0-0.959,0.781-1.739,1.739-1.739h25.043 c0.959,0,1.739,0.781,1.739,1.739v10.087h-3.478v-8c0-0.192-0.156-0.348-0.348-0.348H38.87c-0.192,0-0.348,0.156-0.348,0.348 v33.391c0,0.192,0.156,0.348,0.348,0.348h20.87c0.192,0,0.348-0.156,0.348-0.348v-8h3.478v10.087 c0,0.959-0.781,1.739-1.739,1.739H36.783z"/><path fill="#1f212b" d="M61.826,71.021H36.782c-1.234,0-2.238-1.005-2.238-2.239V31.218c0-1.234,1.004-2.239,2.238-2.239 h25.044c1.234,0,2.239,1.005,2.239,2.239v10.087c0,0.276-0.224,0.5-0.5,0.5h-3.479c-0.276,0-0.5-0.224-0.5-0.5v-7.849H39.021 v33.088h20.565v-7.849c0-0.276,0.224-0.5,0.5-0.5h3.479c0.276,0,0.5,0.224,0.5,0.5v10.087 C64.065,70.017,63.061,71.021,61.826,71.021z M36.782,29.979c-0.683,0-1.238,0.556-1.238,1.239v37.564 c0,0.684,0.556,1.239,1.238,1.239h25.044c0.684,0,1.239-0.556,1.239-1.239v-9.587h-2.479v7.5c0,0.468-0.38,0.849-0.848,0.849 h-20.87c-0.468,0-0.848-0.381-0.848-0.849V33.305c0-0.468,0.38-0.849,0.848-0.849h20.87c0.468,0,0.848,0.381,0.848,0.849v7.5 h2.479v-9.587c0-0.684-0.556-1.239-1.239-1.239H36.782z"/><rect width="10.435" height="3.478" x="60.087" y="44.783" fill="#fff"/><path fill="#1f212b" d="M70.521,48.761H60.087c-0.276,0-0.5-0.224-0.5-0.5v-3.479c0-0.276,0.224-0.5,0.5-0.5h10.435 c0.276,0,0.5,0.224,0.5,0.5v3.479C71.021,48.537,70.798,48.761,70.521,48.761z M60.587,47.761h9.435v-2.479h-9.435V47.761z"/><g><rect width="10.435" height="3.478" x="60.087" y="51.739" fill="#fff"/><path fill="#1f212b" d="M70.521,55.718H60.087c-0.276,0-0.5-0.224-0.5-0.5v-3.479c0-0.276,0.224-0.5,0.5-0.5h10.435 c0.276,0,0.5,0.224,0.5,0.5v3.479C71.021,55.494,70.798,55.718,70.521,55.718z M60.587,54.718h9.435v-2.479h-9.435V54.718z"/></g><g><polygon fill="#fff" points="52.404,59.391 49.304,54.223 46.205,59.391 41.118,59.391 46.761,50 41.118,40.609 46.205,40.609 49.304,45.777 52.404,40.609 57.491,40.609 51.848,50 57.491,59.391"/><path fill="#1f212b" d="M57.491,59.892h-5.087c-0.176,0-0.339-0.092-0.429-0.243l-2.671-4.454l-2.672,4.454 c-0.09,0.151-0.253,0.243-0.429,0.243h-5.086c-0.181,0-0.347-0.097-0.436-0.254c-0.088-0.156-0.086-0.35,0.007-0.504L46.178,50 l-5.488-9.134c-0.093-0.154-0.095-0.348-0.007-0.504c0.089-0.157,0.255-0.254,0.436-0.254h5.086c0.176,0,0.339,0.092,0.429,0.243 l2.672,4.454l2.671-4.454c0.09-0.151,0.253-0.243,0.429-0.243h5.087c0.181,0,0.347,0.097,0.436,0.254 c0.088,0.156,0.086,0.35-0.007,0.504L52.431,50l5.489,9.134c0.093,0.154,0.095,0.348,0.007,0.504 C57.838,59.795,57.672,59.892,57.491,59.892z M52.688,58.892h3.92l-5.188-8.634c-0.095-0.159-0.095-0.356,0-0.516l5.188-8.634 h-3.92l-2.954,4.926c-0.18,0.303-0.678,0.303-0.857,0l-2.955-4.926h-3.919l5.188,8.634c0.095,0.159,0.095,0.356,0,0.516 l-5.188,8.634h3.919l2.955-4.926c0.09-0.151,0.253-0.243,0.429-0.243l0,0c0.176,0,0.339,0.092,0.429,0.243L52.688,58.892z"/></g></svg>